<svg xmlns="http://www.w3.org/2000/svg" version="1.1" xmlns:xlink="http://www.w3.org/1999/xlink" xmlns:svgjs="http://svgjs.dev/svgjs" width="1440" height="560" preserveAspectRatio="none" viewBox="0 0 1440 560"><g mask="url(&quot;#SvgjsMask1087&quot;)" fill="none"><rect width="1440" height="560" x="0" y="0" fill="rgba(7, 20, 34, 1)"></rect><path d="M335 100L644 409" stroke-width="8" stroke="url(&quot;#SvgjsLinearGradient1088&quot;)" stroke-linecap="round" class="TopLeft"></path><path d="M404 1L597 194" stroke-width="8" stroke="url(&quot;#SvgjsLinearGradient1089&quot;)" stroke-linecap="round" class="BottomRight"></path><path d="M847 319L586 58" stroke-width="10" stroke="url(&quot;#SvgjsLinearGradient1088&quot;)" stroke-linecap="round" class="TopLeft"></path><path d="M470 121L94 -255" stroke-width="8" stroke="url(&quot;#SvgjsLinearGradient1089&quot;)" stroke-linecap="round" class="BottomRight"></path><path d="M1431 156L1783 508" stroke-width="6" stroke="url(&quot;#SvgjsLinearGradient1088&quot;)" stroke-linecap="round" class="TopLeft"></path><path d="M1397 56L1814 473" stroke-width="8" stroke="url(&quot;#SvgjsLinearGradient1089&quot;)" stroke-linecap="round" class="BottomRight"></path><path d="M205 243L624 662" stroke-width="8" stroke="url(&quot;#SvgjsLinearGradient1088&quot;)" stroke-linecap="round" class="TopLeft"></path><path d="M1025 37L1282 294" stroke-width="8" stroke="url(&quot;#SvgjsLinearGradient1089&quot;)" stroke-linecap="round" class="BottomRight"></path><path d="M664 266L328 -70" stroke-width="10" stroke="url(&quot;#SvgjsLinearGradient1089&quot;)" stroke-linecap="round" class="BottomRight"></path><path d="M119 194L-46 29" stroke-width="10" stroke="url(&quot;#SvgjsLinearGradient1088&quot;)" stroke-linecap="round" class="TopLeft"></path><path d="M1331 542L1707 918" stroke-width="8" stroke="url(&quot;#SvgjsLinearGradient1088&quot;)" stroke-linecap="round" class="TopLeft"></path><path d="M631 466L1039 874" stroke-width="6" stroke="url(&quot;#SvgjsLinearGradient1088&quot;)" stroke-linecap="round" class="TopLeft"></path><path d="M578 555L791 768" stroke-width="8" stroke="url(&quot;#SvgjsLinearGradient1088&quot;)" stroke-linecap="round" class="TopLeft"></path><path d="M797 347L649 199" stroke-width="6" stroke="url(&quot;#SvgjsLinearGradient1088&quot;)" stroke-linecap="round" class="TopLeft"></path><path d="M552 390L766 604" stroke-width="10" stroke="url(&quot;#SvgjsLinearGradient1089&quot;)" stroke-linecap="round" class="BottomRight"></path><path d="M856 120L1004 268" stroke-width="6" stroke="url(&quot;#SvgjsLinearGradient1089&quot;)" stroke-linecap="round" class="BottomRight"></path><path d="M741 464L1005 728" stroke-width="10" stroke="url(&quot;#SvgjsLinearGradient1088&quot;)" stroke-linecap="round" class="TopLeft"></path><path d="M845 112L439 -294" stroke-width="10" stroke="url(&quot;#SvgjsLinearGradient1089&quot;)" stroke-linecap="round" class="BottomRight"></path><path d="M881 344L1194 657" stroke-width="6" stroke="url(&quot;#SvgjsLinearGradient1089&quot;)" stroke-linecap="round" class="BottomRight"></path><path d="M790 66L545 -179" stroke-width="8" stroke="url(&quot;#SvgjsLinearGradient1088&quot;)" stroke-linecap="round" class="TopLeft"></path><path d="M543 305L687 449" stroke-width="10" stroke="url(&quot;#SvgjsLinearGradient1089&quot;)" stroke-linecap="round" class="BottomRight"></path><path d="M1400 186L1114 -100" stroke-width="10" stroke="url(&quot;#SvgjsLinearGradient1089&quot;)" stroke-linecap="round" class="BottomRight"></path><path d="M412 366L638 592" stroke-width="6" stroke="url(&quot;#SvgjsLinearGradient1089&quot;)" stroke-linecap="round" class="BottomRight"></path><path d="M1420 296L1029 -95" stroke-width="10" stroke="url(&quot;#SvgjsLinearGradient1089&quot;)" stroke-linecap="round" class="BottomRight"></path><path d="M1121 290L1354 523" stroke-width="10" stroke="url(&quot;#SvgjsLinearGradient1088&quot;)" stroke-linecap="round" class="TopLeft"></path><path d="M347 305L744 702" stroke-width="6" stroke="url(&quot;#SvgjsLinearGradient1089&quot;)" stroke-linecap="round" class="BottomRight"></path><path d="M1174 506L948 280" stroke-width="8" stroke="url(&quot;#SvgjsLinearGradient1088&quot;)" stroke-linecap="round" class="TopLeft"></path><path d="M254 37L-161 -378" stroke-width="10" stroke="url(&quot;#SvgjsLinearGradient1089&quot;)" stroke-linecap="round" class="BottomRight"></path><path d="M124 288L299 463" stroke-width="6" stroke="url(&quot;#SvgjsLinearGradient1089&quot;)" stroke-linecap="round" class="BottomRight"></path><path d="M29 524L340 835" stroke-width="8" stroke="url(&quot;#SvgjsLinearGradient1089&quot;)" stroke-linecap="round" class="BottomRight"></path><path d="M1149 339L946 136" stroke-width="8" stroke="url(&quot;#SvgjsLinearGradient1088&quot;)" stroke-linecap="round" class="TopLeft"></path><path d="M324 266L486 428" stroke-width="10" stroke="url(&quot;#SvgjsLinearGradient1088&quot;)" stroke-linecap="round" class="TopLeft"></path><path d="M219 500L-193 88" stroke-width="10" stroke="url(&quot;#SvgjsLinearGradient1089&quot;)" stroke-linecap="round" class="BottomRight"></path><path d="M972 288L765 81" stroke-width="8" stroke="url(&quot;#SvgjsLinearGradient1088&quot;)" stroke-linecap="round" class="TopLeft"></path><path d="M1289 313L882 -94" stroke-width="6" stroke="url(&quot;#SvgjsLinearGradient1089&quot;)" stroke-linecap="round" class="BottomRight"></path><path d="M1414 13L1211 -190" stroke-width="6" stroke="url(&quot;#SvgjsLinearGradient1088&quot;)" stroke-linecap="round" class="TopLeft"></path><path d="M1174 267L905 -2" stroke-width="10" stroke="url(&quot;#SvgjsLinearGradient1088&quot;)" stroke-linecap="round" class="TopLeft"></path><path d="M1212 279L1021 88" stroke-width="8" stroke="url(&quot;#SvgjsLinearGradient1088&quot;)" stroke-linecap="round" class="TopLeft"></path><path d="M1051 235L1401 585" stroke-width="8" stroke="url(&quot;#SvgjsLinearGradient1088&quot;)" stroke-linecap="round" class="TopLeft"></path></g><defs><mask id="SvgjsMask1087"><rect width="1440" height="560" fill="#ffffff"></rect></mask><linearGradient x1="100%" y1="100%" x2="0%" y2="0%" id="SvgjsLinearGradient1088"><stop stop-color="rgba(10, 30, 49, 0)" offset="0"></stop><stop stop-color="rgba(10, 30, 49, 1)" offset="1"></stop></linearGradient><linearGradient x1="0%" y1="0%" x2="100%" y2="100%" id="SvgjsLinearGradient1089"><stop stop-color="rgba(10, 30, 49, 0)" offset="0"></stop><stop stop-color="rgba(10, 30, 49, 1)" offset="1"></stop></linearGradient></defs></svg>